<svg width="32" height="16" viewBox="0 0 32 16" fill="none" xmlns="http://www.w3.org/2000/svg">
<g clip-path="url(#clip0_279_14)">
<path fill-rule="evenodd" clip-rule="evenodd" d="M1.21934 8.76129C1.07889 8.62067 1 8.43004 1 8.23129C1 8.03254 1.07889 7.84192 1.21934 7.70129L7.21934 1.70129C7.288 1.6276 7.3708 1.5685 7.4628 1.52751C7.5548 1.48652 7.65412 1.46448 7.75482 1.4627C7.85552 1.46092 7.95555 1.47945 8.04894 1.51717C8.14233 1.55489 8.22716 1.61104 8.29838 1.68225C8.3696 1.75347 8.42574 1.83831 8.46346 1.9317C8.50118 2.02508 8.51971 2.12511 8.51793 2.22581C8.51616 2.32652 8.49411 2.42583 8.45312 2.51783C8.41213 2.60983 8.35303 2.69263 8.27934 2.76129L3.55934 7.48129L29.7493 7.48129C29.9483 7.48129 30.139 7.56031 30.2797 7.70096C30.4203 7.84161 30.4993 8.03238 30.4993 8.23129C30.4993 8.4302 30.4203 8.62097 30.2797 8.76162C30.139 8.90227 29.9483 8.98129 29.7493 8.98129L3.55934 8.98129L8.27934 13.7013C8.35303 13.77 8.41213 13.8528 8.45312 13.9448C8.49411 14.0368 8.51616 14.1361 8.51793 14.2368C8.51971 14.3375 8.50118 14.4375 8.46346 14.5309C8.42574 14.6243 8.3696 14.7091 8.29838 14.7803C8.22716 14.8515 8.14233 14.9077 8.04894 14.9454C7.95555 14.9831 7.85552 15.0017 7.75482 14.9999C7.65412 14.9981 7.5548 14.9761 7.4628 14.9351C7.3708 14.8941 7.288 14.835 7.21934 14.7613L1.21934 8.76129Z" fill="white"/>
</g>
<defs>
<clipPath id="clip0_279_14">
<rect width="16" height="32" fill="white" transform="translate(0 16) rotate(-90)"/>
</clipPath>
</defs>
</svg>
