<svg width="150" height="150" viewBox="0 0 150 150" fill="none" xmlns="http://www.w3.org/2000/svg">
<path d="M75 8.33333C108.5 8.33333 136.333 33.1667 141 65.3333C132.167 64 118.333 63.1667 96.8333 62.6667C92.5 55 84.1667 50 75 50C65.8333 50 57.5 55 53.1667 62.6667C31.6667 63.1667 17.8333 64 9 65.3333C13.6667 33.1667 41.5 8.33333 75 8.33333ZM75 0C33.5 0 0 33.5 0 75C0 75.6667 0 76.1667 0 76.8333C0.833333 73.5 27.8333 71.5 58.8333 71C60.6667 63.6667 67.1667 58.3333 75 58.3333C82.8333 58.3333 89.3333 63.6667 91.1667 71C122 71.5 149.167 73.3333 150 76.8333C150 76.1667 150 75.6667 150 75C150 33.5 116.5 0 75 0Z" fill="white"/>
<path d="M53.5 87.6666C57.8333 95.1666 66 100 75 100C84 100 92 95.1666 96.5 87.6666C119.667 88.1666 133 89.3333 139.833 90.3333C132.833 120.167 106.167 141.667 75 141.667C43.8333 141.667 17.1667 120.167 10.1667 90.5C17 89.3333 30.3333 88.1666 53.5 87.6666ZM58.8333 79.3333C30.1667 79.8333 4.66667 81.5 0.5 84.5C5.33333 121.333 36.8333 150 75 150C113.167 150 144.667 121.5 149.333 84.5C145.167 81.5 119.833 79.8333 91 79.3333C89.1667 86.5 82.6667 91.6666 74.8333 91.6666C67.3333 91.6666 60.8333 86.3333 58.8333 79.3333Z" fill="white"/>
</svg>
